<svg width="454" height="47" viewBox="0 0 454 47" fill="none" xmlns="http://www.w3.org/2000/svg">
<path d="M8.03125 46H0.84375C0.635417 46 0.53125 45.8958 0.53125 45.6875L0.65625 1.71875C0.65625 1.55208 0.739583 1.46875 0.90625 1.46875H21.4062C21.6146 1.46875 21.7188 1.55208 21.7188 1.71875V8.9375C21.7188 9.10417 21.6354 9.1875 21.4688 9.1875H8.34375V19.125H21.4688C21.6354 19.125 21.7188 19.2292 21.7188 19.4375L21.7812 26.6875C21.7812 26.8542 21.6771 26.9375 21.4688 26.9375H8.34375V45.6875C8.34375 45.8958 8.23958 46 8.03125 46ZM34.9688 46H27.7188C27.5521 46 27.4688 45.8958 27.4688 45.6875L27.5938 1.71875C27.5938 1.55208 27.6771 1.46875 27.8438 1.46875H40.7812C43.0938 1.46875 45.2188 2.03125 47.1562 3.15625C49.0938 4.28125 50.6354 5.79167 51.7812 7.6875C52.9479 9.58333 53.5312 11.7292 53.5312 14.125C53.5312 15.6875 53.2917 17.1042 52.8125 18.375C52.3333 19.6458 51.7708 20.7188 51.125 21.5938C50.5 22.4688 49.9271 23.1146 49.4062 23.5312C51.7188 26.0938 52.875 29.1042 52.875 32.5625L52.9375 45.6875C52.9375 45.8958 52.8333 46 52.625 46H45.375C45.2083 46 45.125 45.9375 45.125 45.8125V32.5625C45.125 31.0208 44.5833 29.6875 43.5 28.5625C42.4167 27.4375 41.0833 26.875 39.5 26.875H35.2812L35.2188 45.6875C35.2188 45.8958 35.1354 46 34.9688 46ZM40.7812 9.125H35.2812V19.1875H40.7812C42.0938 19.1875 43.2604 18.6979 44.2812 17.7188C45.3229 16.7396 45.8438 15.5417 45.8438 14.125C45.8438 12.7708 45.3438 11.6042 44.3438 10.625C43.3438 9.625 42.1562 9.125 40.7812 9.125ZM68.875 46.625C66.6042 46.625 64.5104 46.0417 62.5938 44.875C60.6979 43.7083 59.1667 42.1562 58 40.2188C56.8542 38.2604 56.2812 36.1146 56.2812 33.7812L56.3438 13.5C56.3438 11.125 56.9167 8.98958 58.0625 7.09375C59.1875 5.17708 60.7083 3.64583 62.625 2.5C64.5417 1.33333 66.625 0.75 68.875 0.75C71.2083 0.75 73.3021 1.32292 75.1562 2.46875C77.0312 3.61458 78.5312 5.15625 79.6562 7.09375C80.8021 9.01042 81.375 11.1458 81.375 13.5L81.4375 33.7812C81.4375 36.1146 80.875 38.25 79.75 40.1875C78.6042 42.1458 77.0833 43.7083 75.1875 44.875C73.2917 46.0417 71.1875 46.625 68.875 46.625ZM68.875 38.9062C70.1667 38.9062 71.2917 38.3854 72.25 37.3438C73.2083 36.2812 73.6875 35.0938 73.6875 33.7812L73.625 13.5C73.625 12.0833 73.1771 10.8854 72.2812 9.90625C71.3854 8.92708 70.25 8.4375 68.875 8.4375C67.5625 8.4375 66.4375 8.91667 65.5 9.875C64.5625 10.8333 64.0938 12.0417 64.0938 13.5V33.7812C64.0938 35.1771 64.5625 36.3854 65.5 37.4062C66.4375 38.4062 67.5625 38.9062 68.875 38.9062ZM93.25 46H86.8438C86.5104 46 86.3438 45.8542 86.3438 45.5625L86.2812 1.96875C86.2812 1.63542 86.4479 1.46875 86.7812 1.46875H92.5625L103.375 26.6875L103.062 1.96875C103.062 1.63542 103.25 1.46875 103.625 1.46875H109.969C110.219 1.46875 110.344 1.63542 110.344 1.96875L110.406 45.625C110.406 45.875 110.302 46 110.094 46H104.469L93.375 22.4375L93.8438 45.5C93.8438 45.8333 93.6458 46 93.25 46ZM129.625 46H122.406C122.219 46 122.125 45.8958 122.125 45.6875V9.1875H113.812C113.604 9.1875 113.5 9.08333 113.5 8.875L113.562 1.71875C113.562 1.55208 113.646 1.46875 113.812 1.46875H138.125C138.354 1.46875 138.469 1.55208 138.469 1.71875V8.875C138.469 9.08333 138.385 9.1875 138.219 9.1875H129.812L129.875 45.6875C129.875 45.8958 129.792 46 129.625 46ZM162.531 46H141.844C141.677 46 141.594 45.8958 141.594 45.6875L141.656 1.71875C141.656 1.55208 141.74 1.46875 141.906 1.46875H162.469C162.635 1.46875 162.719 1.57292 162.719 1.78125V8.9375C162.719 9.10417 162.635 9.1875 162.469 9.1875H149.344V19.1875H162.469C162.635 19.1875 162.719 19.2708 162.719 19.4375L162.781 26.6875C162.781 26.8542 162.698 26.9375 162.531 26.9375H149.344V38.125H162.531C162.698 38.125 162.781 38.2292 162.781 38.4375V45.75C162.781 45.9167 162.698 46 162.531 46ZM175.438 46H169.031C168.698 46 168.531 45.8542 168.531 45.5625L168.469 1.96875C168.469 1.63542 168.635 1.46875 168.969 1.46875H174.75L185.562 26.6875L185.25 1.96875C185.25 1.63542 185.438 1.46875 185.812 1.46875H192.156C192.406 1.46875 192.531 1.63542 192.531 1.96875L192.594 45.625C192.594 45.875 192.49 46 192.281 46H186.656L175.562 22.4375L176.031 45.5C176.031 45.8333 175.833 46 175.438 46ZM209.938 45.9375L198.469 46C198.26 46 198.156 45.8958 198.156 45.6875L198.281 1.71875C198.281 1.55208 198.365 1.46875 198.531 1.46875L210.5 1.40625C212.875 1.34375 215.021 1.88542 216.938 3.03125C218.875 4.17708 220.417 5.72917 221.562 7.6875C222.729 9.625 223.312 11.7708 223.312 14.125V32.5C223.312 34.9583 222.719 37.2083 221.531 39.25C220.323 41.2708 218.719 42.8854 216.719 44.0938C214.719 45.2812 212.458 45.8958 209.938 45.9375ZM210.5 9.0625L206.031 9.125L205.969 38.125H209.938C211.521 38.125 212.854 37.5729 213.938 36.4688C215.021 35.3646 215.562 34.0417 215.562 32.5V14.0625C215.562 12.7083 215.062 11.5312 214.062 10.5312C213.062 9.51042 211.875 9.02083 210.5 9.0625ZM265.906 46H245.219C245.052 46 244.969 45.8958 244.969 45.6875L245.031 1.71875C245.031 1.55208 245.115 1.46875 245.281 1.46875H265.844C266.01 1.46875 266.094 1.57292 266.094 1.78125V8.9375C266.094 9.10417 266.01 9.1875 265.844 9.1875H252.719V19.1875H265.844C266.01 19.1875 266.094 19.2708 266.094 19.4375L266.156 26.6875C266.156 26.8542 266.073 26.9375 265.906 26.9375H252.719V38.125H265.906C266.073 38.125 266.156 38.2292 266.156 38.4375V45.75C266.156 45.9167 266.073 46 265.906 46ZM278.812 46H272.406C272.073 46 271.906 45.8542 271.906 45.5625L271.844 1.96875C271.844 1.63542 272.01 1.46875 272.344 1.46875H278.125L288.938 26.6875L288.625 1.96875C288.625 1.63542 288.812 1.46875 289.188 1.46875H295.531C295.781 1.46875 295.906 1.63542 295.906 1.96875L295.969 45.625C295.969 45.875 295.865 46 295.656 46H290.031L278.938 22.4375L279.406 45.5C279.406 45.8333 279.208 46 278.812 46ZM313.25 46.625C310.938 46.625 308.854 46.0521 307 44.9062C305.125 43.7604 303.615 42.2188 302.469 40.2812C301.344 38.3438 300.781 36.1771 300.781 33.7812V13.5C300.781 11.1667 301.354 9.04167 302.5 7.125C303.625 5.1875 305.135 3.64583 307.031 2.5C308.927 1.33333 311 0.75 313.25 0.75C315.604 0.75 317.729 1.3125 319.625 2.4375C321.521 3.58333 323.021 5.11458 324.125 7.03125C325.25 8.94792 325.812 11.1042 325.812 13.5V16.4375C325.812 16.6042 325.708 16.6875 325.5 16.6875H318.312C318.146 16.6875 318.062 16.6042 318.062 16.4375V14C318.062 12.375 317.604 11.0312 316.688 9.96875C315.771 8.90625 314.625 8.375 313.25 8.375C312.021 8.375 310.927 8.88542 309.969 9.90625C309.01 10.9271 308.531 12.125 308.531 13.5V33.7812C308.531 35.1771 309 36.3854 309.938 37.4062C310.875 38.4062 311.979 38.9062 313.25 38.9062C314.625 38.9062 315.771 38.4167 316.688 37.4375C317.604 36.4375 318.062 35.2188 318.062 33.7812V30.625H313.594C313.365 30.625 313.25 30.5208 313.25 30.3125V23.1562C313.25 22.9479 313.365 22.8438 313.594 22.8438H325.562C325.729 22.8438 325.812 22.9479 325.812 23.1562V33.7812C325.812 36.1771 325.25 38.3438 324.125 40.2812C322.979 42.2188 321.469 43.7604 319.594 44.9062C317.719 46.0521 315.604 46.625 313.25 46.625ZM337.906 46H330.656C330.448 46 330.344 45.8958 330.344 45.6875L330.406 1.71875C330.406 1.55208 330.49 1.46875 330.656 1.46875H337.844C338.01 1.46875 338.094 1.55208 338.094 1.71875L338.156 45.6875C338.156 45.8958 338.073 46 337.906 46ZM350.75 46H344.344C344.01 46 343.844 45.8542 343.844 45.5625L343.781 1.96875C343.781 1.63542 343.948 1.46875 344.281 1.46875H350.062L360.875 26.6875L360.562 1.96875C360.562 1.63542 360.75 1.46875 361.125 1.46875H367.469C367.719 1.46875 367.844 1.63542 367.844 1.96875L367.906 45.625C367.906 45.875 367.802 46 367.594 46H361.969L350.875 22.4375L351.344 45.5C351.344 45.8333 351.146 46 350.75 46ZM394.406 46H373.719C373.552 46 373.469 45.8958 373.469 45.6875L373.531 1.71875C373.531 1.55208 373.615 1.46875 373.781 1.46875H394.344C394.51 1.46875 394.594 1.57292 394.594 1.78125V8.9375C394.594 9.10417 394.51 9.1875 394.344 9.1875H381.219V19.1875H394.344C394.51 19.1875 394.594 19.2708 394.594 19.4375L394.656 26.6875C394.656 26.8542 394.573 26.9375 394.406 26.9375H381.219V38.125H394.406C394.573 38.125 394.656 38.2292 394.656 38.4375V45.75C394.656 45.9167 394.573 46 394.406 46ZM421.281 46H400.594C400.427 46 400.344 45.8958 400.344 45.6875L400.406 1.71875C400.406 1.55208 400.49 1.46875 400.656 1.46875H421.219C421.385 1.46875 421.469 1.57292 421.469 1.78125V8.9375C421.469 9.10417 421.385 9.1875 421.219 9.1875H408.094V19.1875H421.219C421.385 19.1875 421.469 19.2708 421.469 19.4375L421.531 26.6875C421.531 26.8542 421.448 26.9375 421.281 26.9375H408.094V38.125H421.281C421.448 38.125 421.531 38.2292 421.531 38.4375V45.75C421.531 45.9167 421.448 46 421.281 46ZM434.719 46H427.469C427.302 46 427.219 45.8958 427.219 45.6875L427.344 1.71875C427.344 1.55208 427.427 1.46875 427.594 1.46875H440.531C442.844 1.46875 444.969 2.03125 446.906 3.15625C448.844 4.28125 450.385 5.79167 451.531 7.6875C452.698 9.58333 453.281 11.7292 453.281 14.125C453.281 15.6875 453.042 17.1042 452.562 18.375C452.083 19.6458 451.521 20.7188 450.875 21.5938C450.25 22.4688 449.677 23.1146 449.156 23.5312C451.469 26.0938 452.625 29.1042 452.625 32.5625L452.688 45.6875C452.688 45.8958 452.583 46 452.375 46H445.125C444.958 46 444.875 45.9375 444.875 45.8125V32.5625C444.875 31.0208 444.333 29.6875 443.25 28.5625C442.167 27.4375 440.833 26.875 439.25 26.875H435.031L434.969 45.6875C434.969 45.8958 434.885 46 434.719 46ZM440.531 9.125H435.031V19.1875H440.531C441.844 19.1875 443.01 18.6979 444.031 17.7188C445.073 16.7396 445.594 15.5417 445.594 14.125C445.594 12.7708 445.094 11.6042 444.094 10.625C443.094 9.625 441.906 9.125 440.531 9.125Z" fill="black"/>
</svg>
