<svg width="475" height="47" viewBox="0 0 475 47" fill="none" xmlns="http://www.w3.org/2000/svg">
<path d="M17.4688 46H9.71875C9.53125 46 9.42708 45.8958 9.40625 45.6875L0.5625 1.71875C0.520833 1.55208 0.604167 1.46875 0.8125 1.46875H8.0625C8.22917 1.46875 8.33333 1.55208 8.375 1.71875L13.625 31.0312L18.75 1.71875C18.7917 1.55208 18.8958 1.46875 19.0625 1.46875H26.2188C26.4479 1.46875 26.5312 1.55208 26.4688 1.71875L17.7812 45.6875C17.7604 45.8958 17.6562 46 17.4688 46ZM37.7812 46H30.5312C30.3229 46 30.2188 45.8958 30.2188 45.6875L30.2812 1.71875C30.2812 1.55208 30.3646 1.46875 30.5312 1.46875H37.7188C37.8854 1.46875 37.9688 1.55208 37.9688 1.71875L38.0312 45.6875C38.0312 45.8958 37.9479 46 37.7812 46ZM54.5312 46.625C52.2604 46.625 50.1667 46.0417 48.25 44.875C46.3542 43.7083 44.8333 42.1562 43.6875 40.2188C42.5625 38.2604 42 36.1146 42 33.7812V30.8438C42 30.6146 42.1042 30.5 42.3125 30.5H49.5C49.6667 30.5 49.75 30.6146 49.75 30.8438V33.7812C49.75 35.1771 50.2188 36.3854 51.1562 37.4062C52.0938 38.4062 53.2188 38.9062 54.5312 38.9062C55.8646 38.9062 57 38.3958 57.9375 37.375C58.875 36.3333 59.3438 35.1354 59.3438 33.7812C59.3438 32.2188 58.3229 30.8542 56.2812 29.6875C55.9479 29.4792 55.5104 29.2292 54.9688 28.9375C54.4479 28.625 53.8229 28.2708 53.0938 27.875C52.3646 27.4792 51.6562 27.0938 50.9688 26.7188C50.2812 26.3229 49.6146 25.9479 48.9688 25.5938C46.6354 24.2188 44.8958 22.5 43.75 20.4375C42.625 18.3542 42.0625 16.0208 42.0625 13.4375C42.0625 11.0625 42.6458 8.91667 43.8125 7C44.9792 5.10417 46.5 3.60417 48.375 2.5C50.2708 1.375 52.3229 0.8125 54.5312 0.8125C56.8021 0.8125 58.8854 1.375 60.7812 2.5C62.6771 3.64583 64.1875 5.16667 65.3125 7.0625C66.4583 8.95833 67.0312 11.0833 67.0312 13.4375V18.6875C67.0312 18.8542 66.9479 18.9375 66.7812 18.9375H59.5938C59.4271 18.9375 59.3438 18.8542 59.3438 18.6875L59.2812 13.4375C59.2812 11.9375 58.8125 10.7188 57.875 9.78125C56.9375 8.84375 55.8229 8.375 54.5312 8.375C53.2188 8.375 52.0938 8.875 51.1562 9.875C50.2188 10.875 49.75 12.0625 49.75 13.4375C49.75 14.8333 50.0417 16 50.625 16.9375C51.2292 17.875 52.3229 18.7708 53.9062 19.625C54.0729 19.7083 54.4583 19.9167 55.0625 20.25C55.6667 20.5833 56.3333 20.9583 57.0625 21.375C57.8125 21.7708 58.4896 22.1354 59.0938 22.4688C59.6979 22.7812 60.0625 22.9688 60.1875 23.0312C62.3125 24.2188 63.9896 25.6771 65.2188 27.4062C66.4688 29.1354 67.0938 31.2604 67.0938 33.7812C67.0938 36.2188 66.5312 38.4062 65.4062 40.3438C64.2604 42.2812 62.7396 43.8125 60.8438 44.9375C58.9479 46.0625 56.8438 46.625 54.5312 46.625ZM79.0312 46H71.7812C71.6146 46 71.5312 45.8958 71.5312 45.6875L71.5938 1.71875C71.5938 1.55208 71.6979 1.46875 71.9062 1.46875H79.0312C79.2396 1.46875 79.3438 1.55208 79.3438 1.71875L79.2812 19.125H88.875V1.71875C88.875 1.55208 88.9583 1.46875 89.125 1.46875H96.25C96.4583 1.46875 96.5625 1.55208 96.5625 1.71875L96.6875 45.6875C96.6875 45.8958 96.5833 46 96.375 46H89.1875C88.9792 46 88.875 45.8958 88.875 45.6875V26.875H79.2812V45.6875C79.2812 45.8958 79.1979 46 79.0312 46ZM122.844 46H102.156C101.99 46 101.906 45.8958 101.906 45.6875L101.969 1.71875C101.969 1.55208 102.052 1.46875 102.219 1.46875H122.781C122.948 1.46875 123.031 1.57292 123.031 1.78125V8.9375C123.031 9.10417 122.948 9.1875 122.781 9.1875H109.656V19.1875H122.781C122.948 19.1875 123.031 19.2708 123.031 19.4375L123.094 26.6875C123.094 26.8542 123.01 26.9375 122.844 26.9375H109.656V38.125H122.844C123.01 38.125 123.094 38.2292 123.094 38.4375V45.75C123.094 45.9167 123.01 46 122.844 46ZM139.656 46.625C137.385 46.625 135.292 46.0417 133.375 44.875C131.479 43.7083 129.958 42.1562 128.812 40.2188C127.688 38.2604 127.125 36.1146 127.125 33.7812V30.8438C127.125 30.6146 127.229 30.5 127.438 30.5H134.625C134.792 30.5 134.875 30.6146 134.875 30.8438V33.7812C134.875 35.1771 135.344 36.3854 136.281 37.4062C137.219 38.4062 138.344 38.9062 139.656 38.9062C140.99 38.9062 142.125 38.3958 143.062 37.375C144 36.3333 144.469 35.1354 144.469 33.7812C144.469 32.2188 143.448 30.8542 141.406 29.6875C141.073 29.4792 140.635 29.2292 140.094 28.9375C139.573 28.625 138.948 28.2708 138.219 27.875C137.49 27.4792 136.781 27.0938 136.094 26.7188C135.406 26.3229 134.74 25.9479 134.094 25.5938C131.76 24.2188 130.021 22.5 128.875 20.4375C127.75 18.3542 127.188 16.0208 127.188 13.4375C127.188 11.0625 127.771 8.91667 128.938 7C130.104 5.10417 131.625 3.60417 133.5 2.5C135.396 1.375 137.448 0.8125 139.656 0.8125C141.927 0.8125 144.01 1.375 145.906 2.5C147.802 3.64583 149.312 5.16667 150.438 7.0625C151.583 8.95833 152.156 11.0833 152.156 13.4375V18.6875C152.156 18.8542 152.073 18.9375 151.906 18.9375H144.719C144.552 18.9375 144.469 18.8542 144.469 18.6875L144.406 13.4375C144.406 11.9375 143.938 10.7188 143 9.78125C142.062 8.84375 140.948 8.375 139.656 8.375C138.344 8.375 137.219 8.875 136.281 9.875C135.344 10.875 134.875 12.0625 134.875 13.4375C134.875 14.8333 135.167 16 135.75 16.9375C136.354 17.875 137.448 18.7708 139.031 19.625C139.198 19.7083 139.583 19.9167 140.188 20.25C140.792 20.5833 141.458 20.9583 142.188 21.375C142.938 21.7708 143.615 22.1354 144.219 22.4688C144.823 22.7812 145.188 22.9688 145.312 23.0312C147.438 24.2188 149.115 25.6771 150.344 27.4062C151.594 29.1354 152.219 31.2604 152.219 33.7812C152.219 36.2188 151.656 38.4062 150.531 40.3438C149.385 42.2812 147.865 43.8125 145.969 44.9375C144.073 46.0625 141.969 46.625 139.656 46.625ZM164.156 46H156.906C156.74 46 156.656 45.8958 156.656 45.6875L156.719 1.71875C156.719 1.55208 156.823 1.46875 157.031 1.46875H164.156C164.365 1.46875 164.469 1.55208 164.469 1.71875L164.406 19.125H174V1.71875C174 1.55208 174.083 1.46875 174.25 1.46875H181.375C181.583 1.46875 181.688 1.55208 181.688 1.71875L181.812 45.6875C181.812 45.8958 181.708 46 181.5 46H174.312C174.104 46 174 45.8958 174 45.6875V26.875H164.406V45.6875C164.406 45.8958 164.323 46 164.156 46ZM210.625 46H204.219C203.885 46 203.719 45.8542 203.719 45.5625L203.656 1.96875C203.656 1.63542 203.823 1.46875 204.156 1.46875H209.938L220.75 26.6875L220.438 1.96875C220.438 1.63542 220.625 1.46875 221 1.46875H227.344C227.594 1.46875 227.719 1.63542 227.719 1.96875L227.781 45.625C227.781 45.875 227.677 46 227.469 46H221.844L210.75 22.4375L211.219 45.5C211.219 45.8333 211.021 46 210.625 46ZM240.906 46H233.656C233.448 46 233.344 45.8958 233.344 45.6875L233.406 1.71875C233.406 1.55208 233.49 1.46875 233.656 1.46875H240.844C241.01 1.46875 241.094 1.55208 241.094 1.71875L241.156 45.6875C241.156 45.8958 241.073 46 240.906 46ZM254.281 46H247.031C246.865 46 246.781 45.8958 246.781 45.6875L246.906 1.71875C246.906 1.55208 246.99 1.46875 247.156 1.46875H260.094C262.406 1.46875 264.531 2.03125 266.469 3.15625C268.406 4.28125 269.948 5.79167 271.094 7.6875C272.26 9.58333 272.844 11.7292 272.844 14.125C272.844 15.6875 272.604 17.1042 272.125 18.375C271.646 19.6458 271.083 20.7188 270.438 21.5938C269.812 22.4688 269.24 23.1146 268.719 23.5312C271.031 26.0938 272.188 29.1042 272.188 32.5625L272.25 45.6875C272.25 45.8958 272.146 46 271.938 46H264.688C264.521 46 264.438 45.9375 264.438 45.8125V32.5625C264.438 31.0208 263.896 29.6875 262.812 28.5625C261.729 27.4375 260.396 26.875 258.812 26.875H254.594L254.531 45.6875C254.531 45.8958 254.448 46 254.281 46ZM260.094 9.125H254.594V19.1875H260.094C261.406 19.1875 262.573 18.6979 263.594 17.7188C264.635 16.7396 265.156 15.5417 265.156 14.125C265.156 12.7708 264.656 11.6042 263.656 10.625C262.656 9.625 261.469 9.125 260.094 9.125ZM285.156 46H277.906C277.74 46 277.656 45.8958 277.656 45.6875L277.781 1.71875C277.781 1.55208 277.865 1.46875 278.031 1.46875H285.844C286.01 1.46875 286.156 1.55208 286.281 1.71875L292.125 10.1562L297.938 1.71875C298.062 1.55208 298.219 1.46875 298.406 1.46875H306.25C306.438 1.46875 306.531 1.55208 306.531 1.71875L306.656 45.6875C306.656 45.8958 306.573 46 306.406 46H299.156C298.99 46 298.906 45.8958 298.906 45.6875L298.844 13.0312L292.125 22.7812L285.469 13.0312L285.406 45.6875C285.406 45.8958 285.323 46 285.156 46ZM309.875 45.6875L317.812 1.71875C317.854 1.55208 317.958 1.46875 318.125 1.46875H327.406C327.573 1.46875 327.677 1.55208 327.719 1.71875L335.344 45.6875C335.365 45.8958 335.281 46 335.094 46H328C327.792 46 327.677 45.8958 327.656 45.6875L326.969 41H318.25L317.562 45.6875C317.542 45.8958 317.438 46 317.25 46H310.125C309.958 46 309.875 45.8958 309.875 45.6875ZM322.406 16.1875L319.531 34.1562H325.688L323.062 16.1875L322.688 13.8125L322.406 16.1875ZM360.281 46H339.594C339.427 46 339.344 45.8958 339.344 45.6875L339.406 1.78125C339.406 1.57292 339.51 1.46875 339.719 1.46875H346.844C347.052 1.46875 347.156 1.57292 347.156 1.78125L347.094 38.125H360.281C360.49 38.125 360.594 38.2292 360.594 38.4375V45.6875C360.594 45.8958 360.49 46 360.281 46ZM391.906 46.625C389.552 46.625 387.417 46.0625 385.5 44.9375C383.604 43.8125 382.104 42.2604 381 40.2812C379.917 38.2812 379.375 36.0521 379.375 33.5938V30.625C379.375 30.4583 379.458 30.375 379.625 30.375H386.875C387.042 30.375 387.125 30.4896 387.125 30.7188V33.5938C387.125 35.1562 387.573 36.4375 388.469 37.4375C389.365 38.4167 390.51 38.9062 391.906 38.9062C393.198 38.9062 394.312 38.375 395.25 37.3125C396.188 36.2292 396.656 34.9896 396.656 33.5938V1.78125C396.656 1.61458 396.74 1.53125 396.906 1.53125H404.094C404.26 1.53125 404.344 1.63542 404.344 1.84375L404.406 33.5938C404.406 35.9271 403.844 38.0833 402.719 40.0625C401.573 42.0625 400.062 43.6562 398.188 44.8438C396.312 46.0312 394.219 46.625 391.906 46.625ZM407.062 45.6875L415 1.71875C415.042 1.55208 415.146 1.46875 415.312 1.46875H424.594C424.76 1.46875 424.865 1.55208 424.906 1.71875L432.531 45.6875C432.552 45.8958 432.469 46 432.281 46H425.188C424.979 46 424.865 45.8958 424.844 45.6875L424.156 41H415.438L414.75 45.6875C414.729 45.8958 414.625 46 414.438 46H407.312C407.146 46 407.062 45.8958 407.062 45.6875ZM419.594 16.1875L416.719 34.1562H422.875L420.25 16.1875L419.875 13.8125L419.594 16.1875ZM444.094 46H436.844C436.635 46 436.531 45.8958 436.531 45.6875L436.594 1.71875C436.594 1.55208 436.677 1.46875 436.844 1.46875H444.031C444.198 1.46875 444.281 1.55208 444.281 1.71875L444.344 45.6875C444.344 45.8958 444.26 46 444.094 46ZM456.938 46H450.531C450.198 46 450.031 45.8542 450.031 45.5625L449.969 1.96875C449.969 1.63542 450.135 1.46875 450.469 1.46875H456.25L467.062 26.6875L466.75 1.96875C466.75 1.63542 466.938 1.46875 467.312 1.46875H473.656C473.906 1.46875 474.031 1.63542 474.031 1.96875L474.094 45.625C474.094 45.875 473.99 46 473.781 46H468.156L457.062 22.4375L457.531 45.5C457.531 45.8333 457.333 46 456.938 46Z" fill="black"/>
</svg>
